<?xml version="1.0" encoding="utf-8"?><!-- Uploaded to: SVG Repo, www.svgrepo.com, Generator: SVG Repo Mixer Tools -->
<svg width="800px" height="800px" viewBox="0 0 64 64" xmlns="http://www.w3.org/2000/svg" stroke-width="3" stroke="#000000" fill="none"><path d="M19.55,43.93H38.1a2,2,0,0,0,2-2V16.28a2,2,0,0,0-2-2H8.68a2,2,0,0,0-2,2V41.91a2,2,0,0,0,2,2h2.6"/><path d="M44.33,43.93H40.19V23.23H50a1,1,0,0,1,.76.35l6.3,7.55a1,1,0,0,1,.23.64V43.93H53"/><ellipse cx="15.53" cy="45.23" rx="4.44" ry="4.5"/><ellipse cx="48.58" cy="45.23" rx="4.44" ry="4.5"/></svg>