<?xml version="1.0" encoding="iso-8859-1"?>
<!-- Uploaded to: SVG Repo, www.svgrepo.com, Generator: SVG Repo Mixer Tools -->
<svg fill="#000000" height="800px" width="800px" version="1.1" id="Layer_1" xmlns="http://www.w3.org/2000/svg" xmlns:xlink="http://www.w3.org/1999/xlink" 
	 viewBox="0 0 511.999 511.999" xml:space="preserve">
<g>
	<g>
		<path d="M347.326,187.762V149.45c0-14.408-11.106-26.263-25.207-27.471c-2.829-19.518-14.076-36.742-31.295-47.271
			c-0.039-0.024-0.123-0.077-0.149-0.224c-0.016-0.1,0.008-0.129,0.034-0.16c7.587-9.053,11.293-20.561,10.438-32.403
			c-1.615-22.295-19.65-40.27-41.953-41.809c-12.699-0.873-24.806,3.406-34.076,12.06c-9.144,8.533-14.388,20.598-14.388,33.1
			c0,10.588,3.734,20.885,10.512,28.997c0.015,0.019,0.037,0.045,0.02,0.157c-0.016,0.096-0.072,0.275-0.266,0.395
			c-17.112,10.538-28.295,27.719-31.114,47.161c-14.101,1.207-25.21,13.063-25.21,27.471v38.312
			c-16.696,2.92-29.43,17.512-29.43,35.032v27.714c0,4.807,3.896,8.705,8.705,8.705c4.809,0,8.705-3.897,8.705-8.705v-27.714
			c0-10.015,8.149-18.163,18.163-18.163h2.562h165.243h2.562c10.015,0,18.163,8.149,18.163,18.163v253.631
			c0,10.015-8.149,18.163-18.163,18.163H170.816c-10.015,0-18.163-8.149-18.163-18.163V279.524c0-4.807-3.896-8.705-8.705-8.705
			c-4.809,0-8.705,3.897-8.705,8.705v196.901c0,19.615,15.958,35.573,35.573,35.573h170.366c19.615,0,35.573-15.959,35.573-35.573
			V222.793C376.756,205.274,364.022,190.683,347.326,187.762z M230.125,89.642c4.448-2.739,7.479-7.266,8.32-12.42
			c0.824-5.062-0.576-10.207-3.843-14.118c-4.167-4.987-6.461-11.321-6.461-17.835c0-7.807,3.145-15.041,8.856-20.372
			c5.705-5.325,13.17-7.958,20.999-7.418c13.711,0.946,24.796,11.993,25.789,25.697c0.528,7.306-1.75,14.397-6.416,19.965
			c-3.29,3.925-4.702,9.086-3.872,14.154c0.835,5.1,3.842,9.571,8.246,12.265c11.953,7.309,20.012,18.976,22.691,32.309H207.57
			C210.24,108.59,218.25,96.955,230.125,89.642z M329.917,187.22H182.083v-37.77c0-5.608,4.563-10.17,10.171-10.17h127.494
			c5.607,0,10.17,4.563,10.17,10.17V187.22z"/>
	</g>
</g>
<g>
	<g>
		<path d="M287.081,286.215c-12.562,0-23.783,6.665-31.08,17.049c-7.297-10.386-18.518-17.049-31.08-17.049
			c-26.223,0-47.556,24.425-47.556,54.447c0,35.906,40.226,69.211,74.673,86.821c1.244,0.636,2.603,0.954,3.963,0.954
			s2.718-0.318,3.962-0.954c13.457-6.879,26.424-15.393,37.5-24.621c3.694-3.077,4.192-8.566,1.115-12.26
			c-3.077-3.694-8.568-4.193-12.26-1.115c-9.016,7.512-19.428,14.515-30.327,20.415c-42.245-22.687-61.217-50.893-61.217-69.239
			c0-20.422,13.523-37.037,30.146-37.037c12.338,0,22.375,12.511,22.375,27.888c0,4.807,3.896,8.705,8.705,8.705
			c4.809,0,8.705-3.898,8.705-8.705c0-15.379,10.037-27.888,22.375-27.888c16.622,0,30.146,16.615,30.146,37.037
			c0,10.056-4.799,20.949-14.265,32.377c-3.066,3.703-2.552,9.19,1.151,12.257c3.701,3.066,9.189,2.551,12.258-1.151
			c12.12-14.632,18.265-29.263,18.265-43.482C334.636,310.64,313.304,286.215,287.081,286.215z"/>
	</g>
</g>
</svg>