<?xml version="1.0" encoding="iso-8859-1"?>
<!-- Uploaded to: SVG Repo, www.svgrepo.com, Generator: SVG Repo Mixer Tools -->
<svg fill="#000000" version="1.1" id="Layer_1" xmlns="http://www.w3.org/2000/svg" xmlns:xlink="http://www.w3.org/1999/xlink" 
	 viewBox="0 0 512 512" xml:space="preserve">
<g>
	<g>
		<path d="M361.695,341.333c10.085-40.339,9.919-73.517-1.166-99.556h9.249v-71.111h-14.222V128h-28.444
			c0-23.835-11.739-44.915-29.737-57.818V41.374C297.374,18.523,278.849,0,256,0s-41.374,18.523-41.374,41.374v28.809
			c-17.998,12.902-29.737,33.983-29.737,57.818h-28.444v42.667h-14.222v71.111h9.249c-11.083,26.038-11.251,59.217-1.166,99.556
			c14.222,56.889-36.527,99.556-8.082,170.667h227.556C398.222,440.889,347.473,398.222,361.695,341.333z M256,99.556
			c15.71,0,28.444,12.735,28.444,28.444h-56.889C227.556,112.29,240.29,99.556,256,99.556z M199.111,170.667h113.778v28.444H199.111
			V170.667z M335.908,469.333H176.092c-0.361-14.609,3.637-28.601,8.485-45.568c7.205-25.206,16.171-56.577,7.118-92.781
			c-5.739-22.956-7.438-42.394-5.05-57.771c1.947-12.535,6.455-21.976,14.19-29.71l1.725-1.725h106.874l1.725,1.725
			c7.734,7.734,12.242,17.175,14.19,29.71c2.388,15.379,0.688,34.815-5.05,57.771c-9.051,36.204-0.085,67.576,7.118,92.781
			C332.27,440.732,336.269,454.724,335.908,469.333z"/>
	</g>
</g>
<g>
	<g>
		<rect x="227.556" y="384" width="56.889" height="42.667"/>
	</g>
</g>
<g>
	<g>
		<rect x="227.556" y="298.667" width="56.889" height="42.667"/>
	</g>
</g>
</svg>